<svg id="svg" version="1.1" xmlns="http://www.w3.org/2000/svg" xmlns:xlink="http://www.w3.org/1999/xlink" width="400" height="216.66666666666666" viewBox="0, 0, 400,216.66666666666666"><g id="svgg"><path id="path0" d="M193.042 108.715 C 191.565 110.476,190.150 112.161,189.896 112.459 C 188.669 113.901,184.190 119.236,183.424 120.170 C 182.947 120.750,182.258 121.569,181.893 121.988 C 181.344 122.620,175.414 129.679,173.893 131.512 C 173.653 131.802,173.154 132.387,172.786 132.812 C 172.417 133.238,170.853 135.098,169.310 136.945 C 167.768 138.792,165.689 141.278,164.692 142.470 C 163.694 143.662,162.430 145.173,161.883 145.828 C 159.991 148.093,158.099 149.954,157.112 150.521 C 154.289 152.144,153.342 152.531,150.878 153.071 C 147.329 153.849,143.398 153.262,139.779 151.415 C 139.132 151.085,138.561 150.858,138.508 150.910 C 138.393 151.026,139.448 152.031,140.195 152.518 C 140.493 152.712,141.029 153.133,141.387 153.453 C 141.744 153.773,142.476 154.430,143.012 154.913 C 143.548 155.396,144.052 155.792,144.131 155.794 C 144.211 155.795,144.747 156.235,145.323 156.771 C 145.898 157.308,146.443 157.746,146.533 157.746 C 146.623 157.746,147.049 158.137,147.480 158.613 C 147.910 159.090,148.341 159.480,148.436 159.480 C 148.531 159.480,149.028 159.870,149.539 160.347 C 150.050 160.823,150.534 161.213,150.614 161.213 C 150.695 161.213,151.152 161.579,151.631 162.026 C 153.349 163.628,153.966 164.162,154.707 164.688 C 155.121 164.982,155.703 165.490,156.001 165.818 C 156.299 166.146,156.619 166.414,156.711 166.414 C 156.804 166.414,157.270 166.804,157.746 167.281 C 158.223 167.757,158.711 168.147,158.830 168.147 C 158.949 168.147,159.426 168.537,159.888 169.014 C 160.351 169.491,160.804 169.881,160.895 169.881 C 160.987 169.881,161.384 170.198,161.778 170.585 C 162.665 171.458,163.110 171.831,163.263 171.831 C 163.328 171.831,163.759 172.221,164.222 172.698 C 164.685 173.174,165.148 173.568,165.251 173.571 C 165.354 173.575,165.775 173.916,166.187 174.330 C 166.598 174.743,167.020 175.081,167.125 175.081 C 167.229 175.081,167.678 175.471,168.123 175.948 C 168.567 176.425,169.023 176.819,169.135 176.825 C 169.247 176.830,169.778 177.268,170.314 177.798 C 170.850 178.328,171.364 178.762,171.455 178.763 C 171.545 178.764,171.984 179.100,172.430 179.509 C 174.988 181.858,175.423 182.232,175.601 182.232 C 175.708 182.232,176.127 182.573,176.532 182.990 C 176.938 183.407,177.349 183.749,177.447 183.749 C 177.544 183.749,178.056 184.163,178.583 184.670 C 180.085 186.111,181.651 187.432,181.858 187.432 C 181.962 187.432,182.397 187.822,182.825 188.299 C 183.253 188.776,183.676 189.166,183.766 189.166 C 183.856 189.166,184.347 189.556,184.858 190.033 C 185.370 190.509,185.854 190.899,185.934 190.899 C 186.014 190.899,186.472 191.265,186.951 191.712 C 188.668 193.314,189.285 193.848,190.027 194.374 C 190.440 194.668,191.023 195.176,191.321 195.504 C 191.619 195.832,191.942 196.100,192.040 196.100 C 192.260 196.100,192.708 196.463,193.441 197.237 C 193.751 197.565,194.080 197.833,194.173 197.833 C 194.265 197.833,194.776 198.248,195.307 198.754 C 196.418 199.812,197.788 200.935,198.125 201.062 C 198.251 201.110,198.540 201.321,198.766 201.531 C 198.991 201.742,199.434 201.979,199.748 202.058 C 200.063 202.137,200.381 202.298,200.454 202.417 C 200.528 202.536,201.016 202.689,201.540 202.757 C 202.063 202.826,202.556 202.981,202.635 203.102 C 202.848 203.429,208.598 203.407,208.927 203.077 C 209.070 202.934,209.380 202.817,209.615 202.817 C 210.159 202.817,212.784 201.546,212.784 201.282 C 212.784 201.173,212.927 201.083,213.101 201.083 C 213.434 201.083,216.901 197.716,216.901 197.392 C 216.901 197.289,217.243 196.873,217.660 196.467 C 218.077 196.062,218.418 195.654,218.418 195.561 C 218.418 195.467,218.638 195.185,218.906 194.933 C 219.174 194.681,219.735 194.039,220.152 193.507 C 220.569 192.975,221.154 192.272,221.452 191.945 C 222.062 191.276,222.765 190.441,224.702 188.083 C 225.119 187.575,225.826 186.770,226.273 186.295 C 226.720 185.819,227.086 185.347,227.086 185.245 C 227.086 185.143,227.500 184.631,228.007 184.107 C 229.142 182.931,230.633 181.173,230.742 180.879 C 230.787 180.759,231.201 180.283,231.663 179.821 C 232.125 179.359,232.503 178.929,232.503 178.865 C 232.503 178.801,232.893 178.342,233.369 177.846 C 233.846 177.350,234.236 176.883,234.236 176.809 C 234.236 176.734,234.675 176.195,235.211 175.611 C 235.748 175.027,236.186 174.489,236.186 174.415 C 236.186 174.341,236.503 173.942,236.891 173.528 C 238.448 171.861,239.437 170.688,239.437 170.506 C 239.437 170.400,239.827 169.935,240.303 169.473 C 240.780 169.010,241.170 168.579,241.170 168.516 C 241.170 168.452,241.609 167.929,242.145 167.353 C 242.681 166.778,243.120 166.236,243.120 166.151 C 243.120 166.065,243.437 165.658,243.824 165.245 C 245.186 163.795,245.865 163.007,246.380 162.276 C 246.666 161.870,247.171 161.297,247.502 161.003 C 247.833 160.708,248.104 160.384,248.104 160.282 C 248.104 160.180,248.372 159.822,248.700 159.485 C 249.028 159.149,249.540 158.564,249.837 158.186 C 250.135 157.808,250.672 157.166,251.029 156.761 C 251.387 156.356,251.972 155.675,252.329 155.247 C 252.687 154.819,253.101 154.336,253.250 154.173 C 253.399 154.010,253.521 153.809,253.521 153.725 C 253.521 153.641,253.838 153.257,254.225 152.872 C 255.016 152.087,255.662 151.334,256.659 150.038 C 257.033 149.552,257.644 148.821,258.016 148.413 C 259.944 146.302,260.450 145.704,260.452 145.533 C 260.454 145.429,260.836 144.975,261.301 144.524 C 262.300 143.554,262.905 142.153,261.930 143.066 C 259.002 145.808,253.776 147.421,249.482 146.909 C 244.705 146.338,243.651 145.710,234.320 137.871 C 230.282 134.478,226.548 131.346,226.023 130.910 C 225.498 130.475,223.646 128.916,221.906 127.446 C 218.297 124.396,218.681 124.718,211.051 118.320 C 207.893 115.671,203.324 111.831,200.898 109.786 C 198.472 107.740,196.316 105.942,196.107 105.790 C 195.767 105.542,195.438 105.855,193.042 108.715 " stroke="none" fill="#3c147c" fill-rule="evenodd"></path><path id="path1" d="M240.011 51.956 C 240.098 52.287,239.201 53.479,236.287 56.911 C 234.176 59.396,231.908 62.161,231.248 63.055 C 230.239 64.421,228.738 66.295,227.844 67.306 C 227.725 67.441,227.272 67.978,226.837 68.499 C 226.403 69.021,224.599 71.169,222.829 73.274 C 221.058 75.378,218.245 78.728,216.576 80.719 C 214.908 82.710,213.443 84.449,213.320 84.585 C 213.120 84.808,204.635 94.917,203.578 96.193 C 203.338 96.482,202.841 97.067,202.474 97.493 C 201.084 99.104,196.170 105.020,196.019 105.264 C 195.839 105.555,196.015 105.718,201.090 109.967 C 203.082 111.636,207.674 115.486,211.294 118.523 C 214.915 121.560,218.072 124.208,218.310 124.408 C 218.548 124.607,220.166 125.974,221.906 127.445 C 223.646 128.916,225.498 130.475,226.023 130.910 C 226.548 131.346,230.282 134.478,234.320 137.871 C 243.651 145.710,244.705 146.338,249.482 146.909 C 253.776 147.421,259.002 145.808,261.930 143.066 C 262.089 142.917,262.347 142.795,262.504 142.795 C 262.660 142.795,263.116 142.424,263.518 141.971 C 264.675 140.663,265.974 139.068,266.057 138.853 C 266.098 138.744,266.537 138.233,267.032 137.718 C 268.564 136.120,269.772 134.712,269.772 134.524 C 269.772 134.425,270.163 133.966,270.639 133.503 C 271.116 133.040,271.506 132.598,271.506 132.520 C 271.506 132.442,271.945 131.921,272.481 131.361 C 273.017 130.801,273.456 130.277,273.456 130.195 C 273.456 130.113,273.846 129.640,274.323 129.144 C 274.800 128.648,275.190 128.168,275.190 128.077 C 275.190 127.987,275.555 127.521,276.002 127.042 C 277.457 125.484,278.121 124.715,278.664 123.962 C 278.958 123.556,279.442 122.961,279.740 122.641 C 280.560 121.761,281.520 120.636,282.124 119.848 C 282.421 119.459,282.933 118.864,283.261 118.525 C 283.589 118.187,283.857 117.832,283.857 117.737 C 283.857 117.642,284.132 117.318,284.468 117.016 C 284.804 116.715,285.413 116.029,285.822 115.493 C 286.231 114.957,286.785 114.312,287.053 114.060 C 287.321 113.808,287.541 113.512,287.541 113.404 C 287.541 113.295,287.736 113.039,287.974 112.835 C 288.212 112.631,288.407 112.316,288.407 112.136 C 288.407 111.957,288.490 111.809,288.591 111.809 C 288.821 111.809,290.141 109.316,290.141 108.881 C 290.141 108.704,290.229 108.559,290.337 108.559 C 290.445 108.559,290.603 108.047,290.688 107.421 C 290.774 106.796,290.942 106.221,291.064 106.144 C 291.365 105.953,291.371 99.467,291.070 99.277 C 290.945 99.198,290.774 98.621,290.688 97.996 C 290.603 97.370,290.445 96.858,290.337 96.858 C 290.229 96.858,290.141 96.706,290.141 96.521 C 290.141 96.016,289.369 94.431,288.857 93.888 C 288.610 93.625,288.407 93.315,288.407 93.199 C 288.407 93.083,288.073 92.616,287.664 92.161 C 286.615 90.993,286.434 90.815,285.054 89.599 C 284.378 89.003,283.660 88.369,283.459 88.191 C 283.258 88.012,282.609 87.476,282.017 86.999 C 281.426 86.522,280.733 85.913,280.478 85.645 C 280.224 85.376,279.921 85.157,279.805 85.157 C 279.689 85.157,279.150 84.743,278.606 84.236 C 276.990 82.730,276.421 82.239,275.642 81.680 C 275.236 81.387,274.594 80.856,274.216 80.498 C 273.490 79.811,272.961 79.361,271.724 78.377 C 270.573 77.461,269.432 76.481,268.329 75.460 C 267.782 74.954,267.249 74.540,267.145 74.540 C 267.041 74.540,266.577 74.150,266.114 73.673 C 265.651 73.196,265.198 72.806,265.107 72.806 C 265.016 72.806,264.619 72.489,264.225 72.102 C 263.349 71.241,262.892 70.856,262.747 70.856 C 262.686 70.856,262.305 70.539,261.899 70.152 C 260.861 69.160,259.147 67.730,258.876 67.629 C 258.750 67.583,258.387 67.290,258.068 66.979 C 256.980 65.917,254.783 64.030,254.531 63.942 C 254.393 63.894,253.914 63.479,253.467 63.021 C 253.020 62.563,252.599 62.189,252.530 62.189 C 252.461 62.189,252.131 61.920,251.797 61.593 C 251.463 61.265,250.971 60.850,250.704 60.672 C 250.438 60.493,249.914 60.078,249.541 59.750 C 248.502 58.836,247.657 58.119,246.587 57.244 C 246.051 56.805,245.336 56.178,245.000 55.850 C 244.663 55.523,244.297 55.255,244.187 55.255 C 244.077 55.255,243.608 54.865,243.145 54.388 C 242.683 53.911,242.239 53.521,242.160 53.521 C 242.081 53.521,241.800 53.302,241.535 53.034 C 240.297 51.778,239.889 51.489,240.011 51.956 " stroke="none" fill="#cb0454" fill-rule="evenodd"></path><path id="path2" d="M185.265 13.613 C 185.265 13.722,184.769 13.878,184.163 13.958 C 183.557 14.039,182.899 14.187,182.700 14.287 C 182.502 14.388,181.950 14.651,181.473 14.873 C 180.997 15.095,180.574 15.349,180.534 15.439 C 180.495 15.528,180.347 15.601,180.207 15.601 C 179.514 15.601,176.457 18.175,174.865 20.098 C 174.567 20.458,174.013 21.129,173.633 21.590 C 173.254 22.050,172.523 22.920,172.008 23.523 C 171.494 24.126,170.731 25.039,170.314 25.551 C 169.560 26.476,169.234 26.857,168.093 28.143 C 167.765 28.513,167.497 28.861,167.497 28.917 C 167.497 28.973,167.083 29.454,166.576 29.986 C 166.070 30.517,165.443 31.228,165.184 31.565 C 164.924 31.902,164.510 32.393,164.263 32.656 C 164.016 32.919,163.814 33.201,163.814 33.283 C 163.814 33.364,163.525 33.734,163.173 34.105 C 161.981 35.356,161.213 36.250,161.213 36.386 C 161.213 36.460,160.775 36.999,160.238 37.583 C 159.702 38.167,159.263 38.731,159.263 38.837 C 159.263 38.942,159.173 38.973,159.062 38.905 C 158.952 38.836,158.805 38.952,158.736 39.163 C 158.667 39.373,158.221 39.964,157.745 40.475 C 157.269 40.987,156.880 41.458,156.880 41.521 C 156.880 41.585,156.579 41.937,156.212 42.304 C 155.846 42.671,155.383 43.224,155.184 43.533 C 154.788 44.150,153.961 45.120,152.709 46.436 C 152.262 46.905,151.896 47.356,151.896 47.436 C 151.896 47.517,151.506 47.989,151.029 48.485 C 150.553 48.981,150.162 49.464,150.161 49.558 C 150.160 49.652,149.721 50.159,149.186 50.685 C 148.650 51.211,148.212 51.715,148.212 51.805 C 148.212 51.895,147.822 52.375,147.346 52.871 C 146.869 53.367,146.479 53.847,146.479 53.936 C 146.479 54.026,146.064 54.544,145.558 55.088 C 143.614 57.174,143.330 57.499,143.113 57.888 C 142.878 58.307,141.369 60.102,140.370 61.151 C 140.049 61.488,139.583 62.030,139.334 62.355 C 139.085 62.681,138.665 63.231,138.401 63.578 C 138.136 63.925,137.627 64.515,137.270 64.889 C 136.912 65.264,136.355 65.920,136.031 66.347 C 135.707 66.775,135.146 67.420,134.785 67.782 C 134.424 68.143,134.128 68.510,134.128 68.596 C 134.128 68.683,133.811 69.076,133.424 69.470 C 132.586 70.322,132.178 70.802,132.178 70.935 C 132.178 71.032,131.201 72.153,129.848 73.608 C 129.461 74.025,129.144 74.449,129.144 74.551 C 129.144 74.653,128.705 75.169,128.169 75.697 C 127.633 76.226,127.194 76.726,127.194 76.808 C 127.194 76.889,126.901 77.249,126.544 77.606 C 126.186 77.964,125.894 78.322,125.894 78.403 C 125.894 78.483,125.479 79.001,124.973 79.554 C 123.342 81.334,121.890 83.016,121.714 83.328 C 121.620 83.495,121.254 83.948,120.902 84.335 C 120.549 84.721,120.260 85.117,120.260 85.214 C 120.260 85.311,119.887 85.753,119.431 86.195 C 118.976 86.637,118.222 87.486,117.756 88.082 C 117.290 88.678,116.834 89.198,116.743 89.238 C 116.651 89.278,116.576 89.400,116.576 89.509 C 116.576 89.618,116.186 90.086,115.710 90.549 C 115.233 91.012,114.843 91.494,114.843 91.622 C 114.843 91.749,114.718 91.931,114.566 92.026 C 114.414 92.121,113.951 92.635,113.537 93.167 C 112.717 94.220,112.277 94.732,110.932 96.195 C 110.445 96.724,109.843 97.444,109.593 97.794 C 109.344 98.144,108.887 98.701,108.578 99.031 C 107.800 99.863,107.259 100.595,107.259 100.815 C 107.259 100.917,107.168 100.945,107.058 100.876 C 106.947 100.808,106.794 100.949,106.718 101.189 C 106.642 101.429,106.489 101.625,106.378 101.625 C 106.266 101.625,106.176 101.727,106.176 101.852 C 106.176 101.977,105.956 102.295,105.688 102.558 C 104.928 103.304,103.575 105.820,103.575 106.487 C 103.575 106.673,103.487 106.826,103.379 106.826 C 103.271 106.826,103.114 107.337,103.030 107.963 C 102.946 108.589,102.774 109.228,102.648 109.383 C 102.345 109.758,102.342 116.023,102.645 116.402 C 102.769 116.558,102.938 117.148,103.020 117.714 C 103.101 118.280,103.256 118.743,103.362 118.743 C 103.469 118.743,103.620 119.085,103.698 119.502 C 103.776 119.919,103.919 120.260,104.016 120.260 C 104.112 120.260,104.255 120.553,104.334 120.910 C 104.412 121.268,104.566 121.560,104.676 121.560 C 104.786 121.560,104.875 121.709,104.875 121.892 C 104.875 122.074,105.022 122.280,105.200 122.349 C 105.379 122.417,105.525 122.592,105.525 122.737 C 105.525 123.087,109.168 126.761,109.515 126.761 C 109.585 126.761,110.033 127.151,110.509 127.627 C 110.986 128.104,111.415 128.470,111.463 128.440 C 111.511 128.410,112.061 128.849,112.685 129.415 C 113.309 129.981,113.958 130.444,114.127 130.444 C 114.297 130.444,114.386 130.524,114.325 130.622 C 114.186 130.848,114.946 131.510,115.918 132.009 C 116.330 132.221,116.528 132.394,116.357 132.394 C 116.175 132.394,116.268 132.548,116.582 132.766 C 116.877 132.970,117.307 133.312,117.538 133.524 C 117.769 133.737,118.086 133.911,118.242 133.911 C 118.399 133.911,118.527 134.036,118.527 134.188 C 118.527 134.489,119.279 135.211,119.593 135.211 C 119.699 135.211,120.238 135.650,120.790 136.186 C 121.342 136.723,121.854 137.161,121.927 137.161 C 122.000 137.161,122.421 137.540,122.861 138.003 C 123.302 138.466,123.872 138.912,124.128 138.993 C 124.384 139.074,124.594 139.232,124.594 139.343 C 124.594 139.454,124.740 139.545,124.919 139.545 C 125.098 139.545,125.244 139.694,125.244 139.877 C 125.244 140.059,125.414 140.272,125.623 140.349 C 125.832 140.427,126.148 140.643,126.327 140.830 C 126.660 141.178,128.093 142.414,129.252 143.352 C 129.610 143.642,130.427 144.342,131.068 144.908 C 131.709 145.474,132.460 146.087,132.737 146.271 C 133.014 146.454,133.467 146.868,133.745 147.191 C 134.023 147.515,134.344 147.780,134.460 147.780 C 134.575 147.781,135.194 148.265,135.834 148.855 C 136.475 149.445,137.060 149.912,137.134 149.892 C 137.209 149.872,138.342 150.393,139.653 151.050 C 144.496 153.476,149.705 153.822,153.771 151.987 C 154.146 151.818,154.510 151.679,154.579 151.679 C 154.649 151.679,155.342 151.289,156.121 150.813 C 156.900 150.336,157.613 149.946,157.704 149.946 C 157.964 149.946,159.614 148.159,162.316 144.952 C 163.676 143.337,165.114 141.631,165.513 141.160 C 165.911 140.689,166.593 139.875,167.029 139.350 C 169.115 136.844,172.603 132.694,172.801 132.484 C 172.923 132.355,173.364 131.826,173.781 131.308 C 174.198 130.791,175.417 129.331,176.490 128.064 C 177.562 126.796,178.830 125.284,179.307 124.703 C 179.783 124.122,180.765 122.958,181.489 122.116 C 182.212 121.274,183.007 120.341,183.255 120.043 C 183.502 119.745,184.081 119.055,184.539 118.509 C 184.998 117.964,185.764 117.043,186.241 116.463 C 186.717 115.883,188.472 113.794,190.141 111.821 C 191.810 109.848,193.809 107.454,194.583 106.501 C 195.358 105.547,196.040 104.718,196.100 104.659 C 196.159 104.599,196.688 103.965,197.275 103.250 C 197.862 102.535,198.447 101.853,198.575 101.733 C 198.703 101.614,199.442 100.737,200.217 99.783 C 202.055 97.521,202.328 97.193,203.359 96.003 C 203.835 95.453,204.664 94.479,205.200 93.839 C 207.411 91.201,207.861 90.662,208.202 90.244 C 208.398 90.003,209.095 89.177,209.751 88.407 C 210.406 87.638,211.138 86.774,211.376 86.487 C 211.614 86.201,211.909 85.857,212.030 85.724 C 212.152 85.591,213.466 84.020,214.951 82.232 C 216.436 80.444,217.750 78.872,217.872 78.738 C 217.994 78.604,218.449 78.068,218.883 77.546 C 219.625 76.656,221.252 74.719,223.329 72.252 C 223.825 71.663,224.440 70.937,224.696 70.639 C 226.406 68.648,229.788 64.507,230.888 63.055 C 232.125 61.424,232.166 61.373,234.230 58.938 C 235.088 57.925,235.953 56.898,236.151 56.656 C 237.047 55.559,238.720 53.580,239.164 53.090 C 239.821 52.365,239.785 52.155,238.881 51.431 C 238.457 51.091,237.994 50.714,237.852 50.593 C 235.377 48.480,233.954 47.281,232.326 45.937 C 230.620 44.529,230.067 43.898,230.021 43.307 C 230.001 43.036,225.114 38.570,224.838 38.570 C 224.771 38.570,224.436 38.302,224.093 37.974 C 223.007 36.936,222.359 36.435,222.249 36.545 C 222.190 36.604,222.077 36.450,221.999 36.203 C 221.920 35.955,221.785 35.753,221.698 35.753 C 221.504 35.753,220.747 35.179,219.973 34.445 C 219.654 34.143,219.087 33.681,218.713 33.418 C 218.339 33.156,217.696 32.623,217.283 32.234 C 216.347 31.351,215.753 30.847,214.525 29.895 C 213.993 29.482,213.304 28.900,212.995 28.602 C 212.307 27.940,210.678 26.609,210.259 26.366 C 210.090 26.268,209.624 25.878,209.223 25.499 C 207.990 24.332,206.025 22.648,205.796 22.562 C 205.677 22.518,205.202 22.103,204.740 21.641 C 204.278 21.180,203.808 20.802,203.694 20.802 C 203.581 20.802,203.411 20.677,203.315 20.525 C 203.220 20.373,202.703 19.916,202.167 19.510 C 201.631 19.104,200.929 18.497,200.608 18.162 C 200.287 17.826,199.965 17.551,199.892 17.551 C 199.819 17.551,199.448 17.259,199.067 16.902 C 198.686 16.545,198.253 16.253,198.104 16.252 C 197.955 16.252,197.833 16.154,197.833 16.035 C 197.833 15.915,197.694 15.818,197.524 15.818 C 197.353 15.818,197.085 15.691,196.928 15.535 C 196.684 15.294,196.041 14.947,195.666 14.853 C 195.607 14.839,195.217 14.661,194.800 14.458 C 193.206 13.683,185.265 12.979,185.265 13.613 " stroke="none" fill="#14c3e3" fill-rule="evenodd"></path><path id="path3" d="M230.279 43.687 C 230.141 43.910,230.461 44.590,230.622 44.414 C 230.673 44.358,230.646 44.123,230.563 43.893 C 230.479 43.663,230.351 43.570,230.279 43.687 M231.108 44.615 C 230.992 44.802,234.255 47.724,234.408 47.571 C 234.526 47.453,233.731 46.587,233.504 46.587 C 233.393 46.587,232.920 46.197,232.452 45.720 C 231.985 45.244,231.507 44.854,231.390 44.854 C 231.273 44.854,231.237 44.756,231.311 44.637 C 231.385 44.518,231.396 44.420,231.337 44.420 C 231.277 44.420,231.174 44.508,231.108 44.615 M236.078 49.067 C 236.793 49.706,237.414 50.195,237.457 50.153 C 237.564 50.050,235.907 48.540,235.686 48.538 C 235.590 48.538,235.564 48.451,235.629 48.345 C 235.695 48.240,235.530 48.098,235.263 48.030 C 234.939 47.947,235.209 48.291,236.078 49.067 M237.703 50.446 C 237.703 50.563,237.858 50.717,238.046 50.790 C 238.257 50.871,238.356 50.822,238.304 50.664 C 238.196 50.340,237.703 50.161,237.703 50.446 M239.493 52.014 C 239.629 52.232,239.818 52.361,239.913 52.303 C 240.217 52.115,240.100 51.842,239.666 51.728 C 239.306 51.634,239.281 51.675,239.493 52.014 M194.465 106.663 C 193.757 107.527,191.812 109.848,190.142 111.821 C 188.473 113.794,186.717 115.882,186.241 116.461 C 185.764 117.040,184.916 118.055,184.356 118.717 C 183.796 119.379,183.384 119.967,183.440 120.023 C 183.496 120.080,183.675 119.936,183.837 119.705 C 184.075 119.366,187.767 114.953,189.898 112.459 C 191.891 110.127,195.883 105.285,195.883 105.199 C 195.883 104.966,195.705 105.150,194.465 106.663 M181.365 122.238 C 180.471 123.312,179.482 124.501,179.167 124.880 C 178.853 125.259,177.566 126.785,176.308 128.271 C 175.051 129.758,174.070 131.022,174.130 131.082 C 174.189 131.141,174.306 131.087,174.389 130.961 C 174.472 130.835,176.246 128.704,178.332 126.226 C 180.417 123.749,182.399 121.393,182.735 120.991 C 183.072 120.589,183.267 120.265,183.169 120.272 C 183.070 120.279,182.259 121.163,181.365 122.238 M173.564 131.476 C 173.564 131.566,173.343 131.883,173.073 132.180 C 172.647 132.648,169.494 136.388,167.029 139.350 C 166.593 139.875,165.911 140.689,165.513 141.160 C 165.114 141.631,163.676 143.337,162.316 144.952 C 159.654 148.111,157.964 149.946,157.716 149.946 C 157.452 149.946,154.910 151.516,155.011 151.616 C 155.502 152.107,159.334 148.879,161.883 145.828 C 164.105 143.168,166.676 140.102,169.765 136.429 C 174.042 131.343,174.067 131.311,173.797 131.311 C 173.669 131.311,173.564 131.385,173.564 131.476 M137.161 149.888 C 137.161 150.033,137.769 150.596,137.926 150.596 C 138.006 150.596,138.898 150.994,139.909 151.481 C 140.920 151.968,141.786 152.327,141.834 152.279 C 141.882 152.231,140.850 151.654,139.541 150.996 C 138.232 150.338,137.161 149.839,137.161 149.888 M153.869 151.914 C 153.583 152.029,153.399 152.171,153.460 152.232 C 153.586 152.358,154.713 151.964,154.713 151.793 C 154.713 151.637,154.479 151.670,153.869 151.914 M142.362 152.509 C 142.541 152.618,143.077 152.767,143.554 152.840 C 144.586 152.998,143.958 152.680,142.795 152.456 C 142.301 152.361,142.150 152.380,142.362 152.509 M151.788 152.658 L 150.921 152.954 151.788 152.830 C 152.702 152.700,153.619 152.333,152.979 152.353 C 152.801 152.358,152.264 152.496,151.788 152.658 M145.070 153.221 C 145.921 153.405,149.439 153.402,150.271 153.216 C 150.628 153.136,149.458 153.073,147.671 153.075 C 145.883 153.078,144.713 153.143,145.070 153.221 " stroke="none" fill="#347cb4" fill-rule="evenodd"></path><path id="path4" d="M230.553 43.938 C 230.553 44.164,231.136 44.854,231.326 44.854 C 231.499 44.854,231.421 44.705,230.986 44.204 C 230.748 43.929,230.553 43.809,230.553 43.938 M232.542 45.831 C 233.580 46.815,233.890 46.813,232.936 45.829 C 232.532 45.412,232.098 45.071,231.973 45.072 C 231.847 45.073,232.103 45.415,232.542 45.831 M234.020 46.915 C 234.020 47.147,235.082 48.104,235.339 48.104 C 235.457 48.104,235.379 47.930,235.166 47.718 C 234.555 47.111,234.020 46.736,234.020 46.915 M236.807 49.426 C 237.316 49.915,237.789 50.257,237.860 50.186 C 237.970 50.077,237.446 49.536,236.466 48.748 C 235.759 48.179,235.992 48.643,236.807 49.426 M238.137 50.363 C 238.137 50.560,239.483 51.788,239.700 51.788 C 239.827 51.788,239.569 51.446,239.126 51.029 C 238.362 50.308,238.137 50.156,238.137 50.363 M237.529 55.162 C 236.184 56.762,235.130 58.072,235.186 58.072 C 235.346 58.072,240.138 52.416,240.051 52.330 C 240.009 52.287,238.874 53.562,237.529 55.162 M232.778 60.834 C 232.190 61.520,231.298 62.644,230.794 63.333 C 230.291 64.022,229.141 65.464,228.240 66.539 C 227.338 67.614,226.648 68.540,226.705 68.598 C 226.763 68.655,226.963 68.469,227.150 68.185 C 227.336 67.900,227.618 67.530,227.775 67.364 C 228.412 66.689,230.098 64.603,230.994 63.380 C 231.518 62.665,232.423 61.520,233.005 60.834 C 233.586 60.149,234.014 59.588,233.954 59.588 C 233.894 59.588,233.365 60.149,232.778 60.834 M224.055 71.560 C 222.820 73.020,221.615 74.434,221.377 74.702 C 221.138 74.970,221.002 75.190,221.074 75.190 C 221.146 75.190,222.250 73.946,223.527 72.427 C 224.805 70.907,225.997 69.493,226.176 69.285 C 226.356 69.076,226.457 68.906,226.401 68.906 C 226.345 68.906,225.290 70.100,224.055 71.560 M218.412 78.277 C 216.944 79.998,216.549 80.571,217.618 79.429 C 218.619 78.359,219.790 76.923,219.661 76.923 C 219.609 76.923,219.047 77.533,218.412 78.277 M215.209 82.030 C 213.718 83.837,213.894 83.828,215.485 82.015 C 216.165 81.241,216.640 80.613,216.541 80.621 C 216.441 80.629,215.842 81.263,215.209 82.030 M213.434 84.182 C 213.155 84.480,213.016 84.721,213.126 84.717 C 213.311 84.711,214.204 83.640,214.024 83.640 C 213.980 83.640,213.714 83.884,213.434 84.182 M210.493 87.703 C 209.216 89.223,207.973 90.685,207.731 90.953 C 207.490 91.222,207.353 91.441,207.429 91.441 C 207.504 91.441,208.793 89.978,210.293 88.191 C 211.792 86.403,212.973 84.940,212.917 84.940 C 212.861 84.940,211.770 86.184,210.493 87.703 M206.626 92.260 L 206.210 92.849 206.789 92.324 C 207.397 91.772,207.472 91.653,207.205 91.664 C 207.115 91.668,206.855 91.936,206.626 92.260 M204.913 94.311 C 204.256 95.056,203.759 95.706,203.809 95.756 C 203.859 95.806,203.929 95.806,203.964 95.757 C 203.999 95.707,204.545 95.057,205.177 94.312 C 206.670 92.554,206.466 92.553,204.913 94.311 M202.377 97.346 C 200.909 99.066,200.514 99.640,201.583 98.498 C 202.584 97.427,203.755 95.991,203.626 95.991 C 203.574 95.991,203.012 96.601,202.377 97.346 M198.267 102.210 C 196.547 104.270,194.806 106.557,195.913 105.299 C 197.442 103.565,200.473 99.862,200.408 99.809 C 200.362 99.773,199.399 100.853,198.267 102.210 " stroke="none" fill="#6474a4" fill-rule="evenodd"></path></g></svg>