<svg id="svg" version="1.1" xmlns="http://www.w3.org/2000/svg" xmlns:xlink="http://www.w3.org/1999/xlink" width="400" height="402.6666666666667" viewBox="0, 0, 400,402.6666666666667"><g id="svgg"><path id="path0" d="M190.891 203.398 C 183.601 212.110,173.886 223.692,171.774 226.188 C 169.275 229.141,161.260 238.719,156.866 244.000 C 154.502 246.842,152.370 249.329,152.129 249.528 C 151.888 249.727,151.047 250.709,150.262 251.710 C 132.677 274.114,115.063 293.000,111.754 293.000 C 111.339 293.000,110.700 293.300,110.333 293.667 C 109.967 294.033,109.390 294.333,109.051 294.333 C 108.713 294.333,107.976 294.563,107.415 294.843 C 106.853 295.123,105.068 295.546,103.447 295.782 C 101.826 296.019,100.725 296.303,101.000 296.413 C 101.275 296.524,99.092 296.626,96.150 296.640 C 93.207 296.655,90.657 296.531,90.483 296.365 C 90.309 296.199,89.151 295.908,87.910 295.719 C 86.669 295.530,85.183 295.141,84.609 294.854 C 84.034 294.568,83.381 294.333,83.157 294.333 C 82.933 294.333,81.306 293.663,79.542 292.844 C 77.777 292.025,76.333 291.480,76.333 291.632 C 76.333 292.042,77.941 293.589,79.833 294.999 C 80.750 295.682,82.950 297.537,84.721 299.121 C 86.493 300.704,88.068 302.001,88.221 302.003 C 88.375 302.005,89.475 302.900,90.667 303.991 C 91.858 305.082,92.936 305.981,93.061 305.988 C 93.187 305.994,94.108 306.787,95.109 307.750 C 97.043 309.609,101.058 312.944,102.032 313.500 C 102.353 313.683,103.490 314.663,104.558 315.676 C 105.626 316.689,108.128 318.864,110.119 320.509 C 112.109 322.154,114.659 324.289,115.785 325.254 C 116.912 326.218,118.588 327.587,119.511 328.294 C 120.434 329.002,121.672 330.131,122.261 330.802 C 122.851 331.474,123.333 331.936,123.333 331.828 C 123.333 331.476,124.253 332.143,125.889 333.682 C 126.775 334.515,127.842 335.433,128.260 335.720 C 128.677 336.008,129.652 336.826,130.426 337.538 C 131.200 338.251,132.358 339.231,133.000 339.716 C 133.642 340.202,134.467 340.876,134.834 341.216 C 135.200 341.556,136.025 342.228,136.667 342.710 C 137.308 343.192,138.288 344.017,138.844 344.543 C 139.399 345.069,140.599 346.098,141.510 346.828 C 142.421 347.558,143.742 348.683,144.446 349.328 C 145.149 349.973,145.993 350.650,146.322 350.833 C 147.514 351.498,149.968 353.922,149.737 354.208 C 149.607 354.368,149.633 354.392,149.797 354.259 C 149.960 354.127,150.930 354.783,151.952 355.717 C 152.974 356.651,154.341 357.756,154.989 358.172 C 155.637 358.587,156.684 359.469,157.315 360.130 C 157.947 360.792,158.605 361.333,158.778 361.333 C 159.059 361.333,160.959 362.971,165.629 367.239 C 166.475 368.012,167.285 368.649,167.430 368.656 C 167.575 368.662,168.726 369.604,169.990 370.750 C 172.800 373.299,176.046 375.981,176.880 376.442 C 177.484 376.776,179.697 378.755,182.579 381.539 C 183.361 382.295,184.000 382.839,184.000 382.749 C 184.000 382.499,187.030 384.979,188.249 386.226 C 188.845 386.835,189.486 387.333,189.674 387.333 C 189.863 387.333,190.983 388.196,192.163 389.250 C 199.572 395.866,203.962 399.284,205.955 399.989 C 206.621 400.225,207.370 400.580,207.618 400.778 C 211.878 404.182,227.588 402.995,233.167 398.847 C 233.717 398.438,234.346 398.043,234.566 397.969 C 235.364 397.698,240.410 392.870,242.264 390.603 C 243.310 389.324,244.692 387.636,245.333 386.852 C 247.512 384.192,253.126 377.501,253.320 377.333 C 253.426 377.242,254.557 375.892,255.833 374.333 C 257.110 372.775,258.232 371.425,258.327 371.333 C 258.866 370.814,263.179 365.709,264.721 363.765 C 267.007 360.883,271.891 355.163,273.530 353.447 C 274.463 352.471,275.176 351.621,275.114 351.559 C 275.052 351.496,275.790 350.558,276.755 349.473 C 277.719 348.388,279.105 346.750,279.834 345.833 C 280.563 344.917,281.563 343.717,282.057 343.167 C 282.551 342.617,283.302 341.688,283.727 341.104 C 284.152 340.519,285.682 338.719,287.126 337.104 C 288.571 335.488,289.987 333.792,290.275 333.333 C 290.562 332.875,291.556 331.667,292.482 330.648 C 293.409 329.630,294.992 327.775,296.000 326.527 C 297.008 325.279,298.623 323.338,299.587 322.212 C 300.552 321.087,302.202 319.125,303.254 317.851 C 304.306 316.578,305.848 314.778,306.680 313.851 C 307.512 312.925,308.584 311.642,309.063 311.000 C 309.541 310.358,310.210 309.531,310.549 309.161 C 310.889 308.792,311.915 307.592,312.830 306.495 C 313.744 305.398,314.906 304.050,315.411 303.500 C 315.917 302.950,316.331 302.379,316.332 302.230 C 316.333 302.082,316.487 302.056,316.675 302.172 C 316.863 302.288,316.975 302.253,316.925 302.095 C 316.875 301.937,317.546 300.972,318.417 299.951 C 319.287 298.930,320.003 297.961,320.008 297.797 C 320.012 297.634,321.270 296.171,322.802 294.547 C 324.335 292.923,325.591 291.523,325.594 291.435 C 325.600 291.228,330.827 285.020,332.977 282.667 C 333.898 281.658,334.655 280.720,334.659 280.580 C 334.663 280.441,335.497 279.424,336.512 278.320 C 338.212 276.471,339.232 274.787,338.871 274.426 C 338.789 274.345,337.765 275.030,336.595 275.950 C 330.592 280.668,323.186 283.105,314.833 283.112 C 305.342 283.121,300.353 281.063,290.372 273.020 C 288.652 271.634,286.680 270.050,285.990 269.500 C 284.690 268.464,272.980 258.634,242.512 233.000 C 236.302 227.775,228.271 221.025,224.666 218.000 C 221.061 214.975,213.660 208.750,208.219 204.167 C 202.779 199.583,198.116 195.787,197.859 195.731 C 197.589 195.672,194.641 198.915,190.891 203.398 " stroke="none" fill="#3c147c" fill-rule="evenodd"></path><path id="path1" d="M291.445 81.809 C 291.545 82.071,291.413 82.463,291.151 82.680 C 290.888 82.898,290.742 83.185,290.824 83.318 C 290.975 83.563,286.813 88.677,282.674 93.333 C 279.896 96.460,279.399 97.052,277.611 99.378 C 271.016 107.954,265.252 115.141,263.476 117.000 C 263.039 117.458,261.003 119.858,258.953 122.333 C 256.902 124.808,253.780 128.483,252.015 130.500 C 250.250 132.517,248.569 134.542,248.279 135.000 C 247.989 135.458,246.571 137.170,245.126 138.803 C 243.682 140.437,241.825 142.633,241.000 143.684 C 240.175 144.735,238.375 146.916,237.000 148.532 C 235.625 150.147,232.917 153.360,230.982 155.671 C 229.047 157.982,225.897 161.712,223.982 163.961 C 222.067 166.209,219.822 168.923,218.994 169.992 C 218.165 171.061,216.706 172.813,215.751 173.884 C 214.796 174.956,213.449 176.531,212.757 177.383 C 212.066 178.235,210.633 179.885,209.573 181.050 C 208.514 182.214,205.619 185.683,203.139 188.759 C 200.660 191.835,198.527 194.286,198.399 194.208 C 198.271 194.129,198.146 194.415,198.120 194.845 C 198.072 195.640,199.379 196.780,224.527 217.883 C 228.209 220.972,236.302 227.775,242.512 233.000 C 272.980 258.634,284.690 268.464,285.990 269.500 C 286.680 270.050,288.652 271.634,290.372 273.020 C 300.353 281.063,305.342 283.121,314.833 283.112 C 323.176 283.105,330.593 280.667,336.577 275.964 C 337.738 275.052,338.827 274.393,338.999 274.499 C 339.515 274.818,343.144 270.843,347.095 265.632 C 347.318 265.338,348.775 263.717,350.333 262.029 C 351.892 260.341,353.580 258.344,354.086 257.593 C 354.591 256.841,355.716 255.441,356.586 254.481 C 360.364 250.311,362.178 248.210,362.333 247.827 C 362.616 247.130,365.236 244.351,365.458 244.513 C 365.573 244.598,365.596 244.571,365.510 244.454 C 365.281 244.145,366.517 242.465,368.753 240.046 C 369.831 238.880,371.829 236.524,373.193 234.811 C 374.557 233.098,375.934 231.544,376.253 231.358 C 376.572 231.172,376.717 231.016,376.575 231.010 C 376.433 231.005,376.759 230.512,377.300 229.917 C 378.635 228.445,379.322 227.634,380.500 226.140 C 381.050 225.442,382.133 224.188,382.907 223.352 C 383.681 222.517,384.319 221.672,384.324 221.475 C 384.329 221.278,384.727 220.753,385.208 220.308 C 387.573 218.124,393.034 211.458,393.811 209.807 C 394.077 209.242,394.540 208.577,394.839 208.329 C 395.421 207.846,397.667 203.338,397.667 202.652 C 397.667 202.426,397.865 202.074,398.107 201.870 C 398.349 201.667,398.735 200.525,398.966 199.333 C 399.196 198.142,399.523 197.024,399.692 196.850 C 400.075 196.456,400.104 182.437,399.723 182.201 C 399.571 182.107,399.246 180.972,399.002 179.678 C 398.758 178.384,398.358 177.158,398.112 176.955 C 397.867 176.752,397.667 176.288,397.667 175.924 C 397.667 175.050,396.227 172.215,394.989 170.653 C 394.445 169.966,394.000 169.259,394.000 169.082 C 394.000 168.905,393.405 168.084,392.678 167.258 C 391.950 166.432,391.463 165.623,391.594 165.461 C 391.726 165.299,391.705 165.270,391.547 165.397 C 391.390 165.524,390.211 164.594,388.927 163.330 C 387.643 162.066,386.325 160.837,385.999 160.599 C 385.104 159.946,379.675 155.344,378.224 154.008 C 377.523 153.362,376.433 152.519,375.802 152.134 C 375.171 151.750,373.870 150.694,372.911 149.788 C 371.952 148.882,369.722 146.946,367.956 145.487 C 360.021 138.928,355.333 134.895,355.333 134.626 C 355.333 134.465,355.201 134.371,355.040 134.417 C 354.879 134.462,354.092 133.890,353.290 133.144 C 352.489 132.397,350.933 131.101,349.833 130.263 C 348.733 129.425,347.379 128.310,346.823 127.786 C 346.267 127.262,345.067 126.234,344.156 125.501 C 341.321 123.219,341.017 122.910,341.231 122.533 C 341.346 122.332,341.321 122.275,341.174 122.407 C 340.834 122.714,339.306 121.642,337.058 119.517 C 336.082 118.594,334.207 117.032,332.891 116.046 C 329.977 113.862,327.141 111.265,327.261 110.892 C 327.310 110.741,327.218 110.699,327.057 110.798 C 326.895 110.898,326.409 110.602,325.976 110.141 C 325.542 109.680,324.358 108.677,323.344 107.914 C 322.330 107.150,320.735 105.844,319.800 105.013 C 317.793 103.226,315.586 101.373,312.833 99.163 C 309.628 96.589,308.375 95.403,308.612 95.166 C 308.734 95.044,308.666 94.994,308.462 95.056 C 307.958 95.206,303.969 91.815,304.265 91.487 C 304.394 91.344,304.334 91.321,304.132 91.436 C 303.929 91.552,303.404 91.258,302.965 90.784 C 302.526 90.310,301.475 89.452,300.630 88.878 C 299.785 88.303,297.985 86.825,296.630 85.592 C 291.928 81.313,290.992 80.630,291.445 81.809 " stroke="none" fill="#cb0454" fill-rule="evenodd"></path><path id="path2" d="M175.148 0.515 C 174.772 0.779,173.722 1.093,172.815 1.214 C 171.245 1.422,168.083 2.780,163.936 5.026 C 160.605 6.830,155.884 11.168,151.630 16.333 C 150.649 17.525,149.762 18.575,149.660 18.667 C 149.558 18.758,147.605 21.083,145.321 23.833 C 143.037 26.583,140.678 29.373,140.078 30.032 C 139.479 30.691,138.579 31.765,138.078 32.419 C 137.577 33.074,135.876 35.084,134.298 36.888 C 132.721 38.691,130.846 40.935,130.132 41.874 C 129.418 42.813,127.821 44.705,126.583 46.078 C 125.346 47.452,124.333 48.728,124.333 48.916 C 124.333 49.103,123.696 49.832,122.917 50.536 C 122.138 51.240,121.540 51.859,121.590 51.913 C 121.799 52.138,120.169 54.000,119.762 54.000 C 119.517 54.000,119.184 54.348,119.023 54.773 C 118.861 55.199,118.058 56.286,117.238 57.190 C 115.729 58.853,114.828 59.949,111.858 63.739 C 110.955 64.891,109.072 67.108,107.672 68.667 C 106.273 70.225,104.912 71.817,104.647 72.204 C 104.383 72.591,103.454 73.690,102.583 74.646 C 101.712 75.602,101.000 76.504,101.000 76.650 C 101.000 76.795,100.287 77.653,99.417 78.556 C 98.546 79.459,97.388 80.791,96.844 81.516 C 96.300 82.240,95.325 83.409,94.677 84.112 C 94.030 84.816,93.350 85.666,93.167 86.003 C 92.983 86.339,91.642 87.918,90.187 89.512 C 88.731 91.106,86.781 93.405,85.853 94.621 C 84.926 95.838,84.017 97.000,83.833 97.203 C 81.089 100.245,78.774 102.952,76.654 105.599 C 75.230 107.378,73.312 109.632,72.394 110.609 C 71.475 111.586,70.723 112.461,70.724 112.553 C 70.724 112.645,70.143 113.346,69.433 114.110 C 68.723 114.875,67.698 116.100,67.156 116.833 C 66.614 117.567,65.509 118.877,64.701 119.745 C 63.893 120.614,62.977 121.739,62.665 122.245 C 62.354 122.752,61.058 124.261,59.786 125.598 C 58.514 126.934,57.517 128.073,57.572 128.127 C 57.626 128.182,57.370 128.499,57.002 128.831 C 56.634 129.164,56.333 129.589,56.333 129.775 C 56.333 129.961,55.396 131.130,54.250 132.372 C 51.801 135.028,50.040 137.110,49.308 138.213 C 49.019 138.649,48.682 138.929,48.558 138.836 C 48.435 138.743,48.404 138.762,48.490 138.878 C 48.576 138.995,47.700 140.157,46.545 141.462 C 45.389 142.766,44.007 144.343,43.472 144.966 C 42.937 145.590,42.264 146.340,41.976 146.633 C 41.688 146.927,41.093 147.692,40.655 148.333 C 40.216 148.975,39.366 150.025,38.765 150.667 C 38.164 151.308,37.671 151.971,37.670 152.138 C 37.668 152.306,36.804 153.369,35.750 154.500 C 32.646 157.832,29.667 161.267,29.667 161.514 C 29.667 161.641,28.842 162.635,27.833 163.724 C 26.825 164.814,26.000 165.839,26.000 166.003 C 26.000 166.167,25.508 166.796,24.907 167.401 C 24.305 168.005,23.293 169.197,22.657 170.049 C 22.020 170.902,21.384 171.528,21.242 171.441 C 21.100 171.355,21.025 171.428,21.075 171.604 C 21.125 171.780,20.414 172.729,19.494 173.712 C 18.573 174.695,16.778 176.775,15.505 178.333 C 14.231 179.892,12.547 181.895,11.761 182.786 C 10.976 183.677,10.333 184.614,10.333 184.869 C 10.333 185.125,10.104 185.333,9.823 185.333 C 9.542 185.333,9.216 185.596,9.098 185.917 C 8.980 186.237,8.572 186.818,8.192 187.207 C 5.814 189.638,2.333 195.630,2.333 197.290 C 2.333 197.641,2.141 198.002,1.907 198.092 C 1.672 198.183,1.276 199.403,1.027 200.804 C 0.778 202.205,0.445 203.431,0.287 203.528 C -0.082 203.756,-0.091 218.237,0.277 218.465 C 0.429 218.559,0.752 219.686,0.994 220.969 C 1.240 222.269,1.633 223.377,1.884 223.473 C 2.131 223.568,2.333 223.931,2.333 224.279 C 2.333 225.003,5.064 230.494,5.825 231.299 C 6.976 232.517,7.971 233.921,7.824 234.120 C 7.737 234.238,7.742 234.283,7.835 234.220 C 7.928 234.158,9.240 235.325,10.752 236.812 C 12.263 238.300,14.099 239.963,14.831 240.508 C 16.716 241.913,17.664 242.892,17.396 243.159 C 17.270 243.285,17.317 243.341,17.500 243.282 C 17.683 243.224,18.658 243.815,19.667 244.595 C 20.675 245.375,22.175 246.537,23.000 247.176 C 23.825 247.815,24.650 248.499,24.833 248.695 C 26.207 250.164,27.292 251.063,28.230 251.508 C 28.832 251.793,29.289 252.144,29.245 252.286 C 29.174 252.521,31.715 255.126,31.920 255.028 C 32.257 254.867,33.938 256.095,34.295 256.762 C 34.537 257.213,35.281 257.894,35.950 258.276 C 36.619 258.657,38.945 260.554,41.118 262.491 C 43.291 264.428,45.391 266.182,45.784 266.389 C 46.178 266.595,46.620 266.967,46.767 267.215 C 46.913 267.464,47.233 267.667,47.478 267.667 C 47.722 267.667,48.000 267.966,48.096 268.332 C 48.192 268.697,48.547 269.101,48.885 269.228 C 49.694 269.532,54.650 273.889,54.471 274.140 C 54.395 274.246,54.426 274.266,54.539 274.183 C 54.746 274.032,56.478 275.390,61.031 279.273 C 63.611 281.473,66.517 283.927,70.565 287.322 C 71.884 288.428,73.122 289.333,73.316 289.333 C 73.510 289.333,75.881 290.393,78.584 291.689 C 89.102 296.729,100.486 297.578,108.667 293.933 C 111.571 292.639,112.292 292.269,114.215 291.090 C 115.341 290.399,116.703 289.593,117.241 289.299 C 118.474 288.624,121.924 284.749,132.464 272.204 C 143.200 259.423,150.375 250.896,151.989 249.000 C 152.691 248.175,156.382 243.750,160.192 239.167 C 164.002 234.583,168.180 229.619,169.476 228.134 C 170.773 226.650,173.558 223.352,175.667 220.806 C 181.339 213.956,196.808 195.549,204.221 186.828 C 206.267 184.420,208.742 181.466,209.721 180.263 C 210.699 179.060,213.000 176.314,214.833 174.160 C 216.667 172.006,218.650 169.648,219.240 168.921 C 219.831 168.193,220.905 166.901,221.628 166.049 C 222.351 165.197,225.918 160.996,229.555 156.713 C 233.191 152.430,236.460 148.530,236.818 148.046 C 237.176 147.562,238.751 145.651,240.318 143.798 C 241.885 141.945,244.921 138.345,247.066 135.798 C 249.211 133.251,253.565 128.092,256.741 124.333 C 261.805 118.342,265.588 113.701,274.016 103.138 C 276.676 99.804,287.045 87.389,289.131 85.041 C 291.158 82.758,290.807 81.284,287.877 79.770 C 287.303 79.474,286.683 79.050,286.500 78.829 C 285.924 78.134,280.590 73.546,278.500 71.948 C 277.400 71.106,275.428 69.424,274.117 68.209 C 272.806 66.994,271.585 66.000,271.403 66.000 C 270.997 66.000,270.667 65.197,270.667 64.213 C 270.667 63.811,270.404 63.252,270.083 62.971 C 269.762 62.690,268.938 61.813,268.250 61.020 C 267.563 60.228,267.000 59.686,267.000 59.817 C 267.000 59.947,266.212 59.316,265.250 58.414 C 262.397 55.741,260.573 54.171,259.333 53.322 C 257.835 52.295,257.328 51.797,257.516 51.540 C 257.599 51.426,257.572 51.403,257.455 51.489 C 257.339 51.575,256.568 51.050,255.742 50.322 C 254.916 49.595,254.136 49.000,254.009 49.000 C 253.883 49.000,253.579 48.625,253.333 48.167 C 253.088 47.708,252.741 47.333,252.563 47.333 C 252.385 47.333,251.399 46.621,250.372 45.750 C 248.320 44.009,248.106 43.834,246.167 42.320 C 245.433 41.748,244.233 40.723,243.500 40.043 C 242.767 39.363,240.442 37.390,238.333 35.658 C 233.644 31.807,233.643 31.807,233.933 31.486 C 234.061 31.343,233.999 31.322,233.795 31.439 C 233.590 31.555,233.163 31.364,232.846 31.014 C 232.529 30.663,231.121 29.505,229.718 28.440 C 226.930 26.324,226.330 25.810,226.433 25.623 C 226.470 25.555,226.439 25.536,226.364 25.580 C 226.290 25.624,225.533 25.024,224.683 24.247 C 222.328 22.094,221.035 20.991,218.667 19.115 C 217.475 18.171,216.136 17.009,215.692 16.533 C 215.247 16.056,214.718 15.667,214.516 15.667 C 214.314 15.667,213.917 15.404,213.634 15.083 C 213.351 14.762,212.305 13.806,211.310 12.958 C 205.473 7.985,204.260 6.995,203.345 6.454 C 202.789 6.125,202.333 5.739,202.333 5.595 C 202.333 5.451,202.052 5.333,201.707 5.333 C 201.363 5.333,200.915 5.133,200.712 4.888 C 200.212 4.285,196.962 2.727,194.167 1.751 C 190.127 0.339,176.649 -0.536,175.148 0.515 " stroke="none" fill="#14c3e3" fill-rule="evenodd"></path><path id="path3" d="M270.667 64.406 C 270.667 65.207,271.027 66.000,271.391 66.000 C 271.568 66.000,271.610 65.664,271.485 65.250 C 271.181 64.245,270.667 63.714,270.667 64.406 M273.194 66.956 C 273.004 67.264,276.280 70.309,278.823 72.189 L 280.146 73.167 279.017 71.750 C 278.396 70.971,277.692 70.333,277.451 70.333 C 277.211 70.333,276.198 69.504,275.200 68.490 C 274.202 67.476,273.299 66.786,273.194 66.956 M283.167 75.838 C 286.024 78.464,286.908 78.704,284.250 76.132 C 283.196 75.112,282.333 74.140,282.333 73.972 C 282.333 73.804,281.996 73.673,281.583 73.680 C 280.964 73.691,281.239 74.066,283.167 75.838 M286.333 78.476 C 286.333 78.752,287.385 79.667,287.702 79.667 C 287.896 79.667,287.882 79.403,287.667 79.000 C 287.365 78.437,286.333 78.032,286.333 78.476 M290.317 81.970 C 290.769 82.813,291.426 82.894,291.271 82.087 C 291.209 81.768,290.886 81.455,290.552 81.391 C 290.032 81.291,289.998 81.374,290.317 81.970 M190.766 202.750 C 186.893 207.379,181.217 214.167,178.153 217.833 C 175.089 221.500,172.352 224.763,172.071 225.085 C 171.790 225.407,171.639 225.750,171.737 225.848 C 171.834 225.945,174.019 223.507,176.594 220.429 C 186.460 208.633,196.111 197.125,196.954 196.151 C 197.715 195.271,198.205 194.333,197.904 194.333 C 197.852 194.333,194.639 198.121,190.766 202.750 M167.265 230.730 C 155.519 244.603,151.227 249.883,151.900 249.630 C 152.089 249.558,154.627 246.648,157.539 243.161 C 160.451 239.675,164.690 234.607,166.960 231.899 C 169.229 229.191,171.008 226.897,170.912 226.801 C 170.817 226.706,169.175 228.474,167.265 230.730 M150.667 250.301 C 150.667 250.466,148.454 253.221,145.750 256.421 C 143.046 259.622,137.030 266.768,132.382 272.302 C 127.733 277.836,122.581 283.894,120.932 285.765 L 117.934 289.167 121.228 285.833 C 123.039 284.000,127.592 278.837,131.344 274.359 C 152.711 248.864,151.795 250.000,151.000 250.000 C 150.817 250.000,150.667 250.135,150.667 250.301 M73.865 290.038 C 74.446 290.683,75.590 291.314,76.548 291.516 C 76.757 291.561,78.044 292.120,79.408 292.758 C 82.213 294.072,83.333 294.474,83.333 294.167 C 83.333 293.959,73.875 289.333,73.449 289.333 C 73.329 289.333,73.516 289.651,73.865 290.038 M115.500 290.268 C 112.543 291.904,111.086 293.000,111.870 293.000 C 112.486 293.000,117.333 289.887,117.333 289.491 C 117.333 289.257,117.305 289.269,115.500 290.268 M108.667 293.833 C 107.931 294.254,107.911 294.310,108.500 294.310 C 108.867 294.310,109.542 294.095,110.000 293.833 C 110.736 293.413,110.756 293.357,110.167 293.357 C 109.800 293.357,109.125 293.571,108.667 293.833 M85.333 295.167 C 87.015 295.814,88.585 295.804,87.167 295.155 C 86.617 294.903,85.717 294.701,85.167 294.707 L 84.167 294.717 85.333 295.167 M104.833 295.157 C 103.798 295.499,103.686 295.599,104.333 295.606 C 104.792 295.612,105.692 295.414,106.333 295.167 C 107.868 294.576,106.621 294.568,104.833 295.157 M90.667 296.333 C 91.342 296.770,100.667 296.770,100.667 296.333 C 100.667 296.125,98.698 296.002,95.417 296.005 C 91.904 296.009,90.332 296.117,90.667 296.333 " stroke="none" fill="#347ab3" fill-rule="evenodd"></path><path id="path4" d="M271.333 64.981 C 271.333 65.498,272.924 67.186,273.175 66.936 C 273.302 66.809,273.079 66.246,272.680 65.686 C 271.970 64.688,271.333 64.355,271.333 64.981 M274.639 67.948 C 275.054 68.724,277.312 70.466,277.569 70.208 C 277.820 69.958,275.195 67.333,274.694 67.333 C 274.424 67.333,274.408 67.516,274.639 67.948 M278.668 71.250 C 278.671 71.719,280.699 73.667,281.184 73.667 C 281.992 73.667,281.730 73.101,280.424 72.024 C 279.187 71.004,278.665 70.774,278.668 71.250 M284.574 76.401 C 285.712 77.538,286.758 78.353,286.900 78.211 C 287.212 77.899,283.578 74.333,282.949 74.333 C 282.706 74.333,283.437 75.264,284.574 76.401 M287.647 78.964 C 288.041 79.700,289.910 81.333,290.359 81.333 C 290.950 81.333,290.657 80.793,289.403 79.568 C 288.018 78.216,287.073 77.891,287.647 78.964 M286.167 88.532 C 283.783 91.375,281.787 93.881,281.731 94.101 C 281.604 94.596,282.592 93.503,286.833 88.456 C 291.088 83.394,291.137 83.331,290.791 83.348 C 290.631 83.355,288.550 85.688,286.167 88.532 M276.821 99.750 C 275.955 100.712,274.560 102.400,273.722 103.500 C 272.884 104.600,270.354 107.793,268.099 110.596 C 263.987 115.707,262.778 117.333,263.092 117.333 C 263.336 117.333,268.736 110.793,272.173 106.333 C 273.798 104.225,275.742 101.750,276.493 100.833 C 279.277 97.435,279.466 96.810,276.821 99.750 M257.132 123.879 C 251.547 130.426,250.390 131.884,251.459 131.020 C 252.112 130.493,262.005 118.872,262.433 118.129 C 263.101 116.971,262.073 118.086,257.132 123.879 M245.643 137.583 C 243.105 140.584,242.317 141.850,244.347 139.667 C 246.638 137.202,248.414 135.000,248.112 135.000 C 247.956 135.000,246.845 136.162,245.643 137.583 M239.009 145.417 C 237.721 146.929,236.672 148.317,236.679 148.500 C 236.685 148.683,237.023 148.444,237.429 147.968 C 240.395 144.491,241.667 142.945,241.667 142.816 C 241.667 142.396,241.152 142.900,239.009 145.417 M235.167 150.000 C 234.643 150.546,234.290 151.068,234.382 151.160 C 234.474 151.251,234.977 150.880,235.500 150.333 C 236.023 149.787,236.376 149.265,236.285 149.174 C 236.193 149.082,235.690 149.454,235.167 150.000 M231.322 154.595 C 223.778 163.500,222.253 165.364,222.396 165.507 C 222.484 165.595,224.856 162.930,227.667 159.584 C 230.479 156.238,233.080 153.162,233.447 152.750 C 233.815 152.337,233.978 152.005,233.808 152.012 C 233.639 152.019,232.520 153.181,231.322 154.595 M221.108 166.750 C 219.875 168.119,219.881 168.518,221.117 167.351 C 221.786 166.719,222.333 166.157,222.333 166.101 C 222.333 165.765,221.686 166.108,221.108 166.750 M217.167 171.389 C 214.993 173.941,214.384 174.823,214.930 174.624 C 215.243 174.511,218.941 170.238,219.477 169.371 C 220.177 168.239,218.901 169.354,217.167 171.389 M213.705 175.568 C 212.995 176.338,209.611 180.417,209.060 181.167 C 208.227 182.301,212.501 177.839,213.492 176.540 C 214.426 175.316,214.577 174.622,213.705 175.568 M205.000 185.924 C 200.928 190.683,197.683 194.794,197.860 194.971 C 197.957 195.068,198.141 194.992,198.268 194.803 C 198.396 194.613,200.505 192.023,202.956 189.046 C 207.486 183.542,208.950 181.308,205.000 185.924 " stroke="none" fill="#6372a3" fill-rule="evenodd"></path></g></svg>